# xmcd CD database file
#
# Track frame offsets:
#	150
#	22507
#	64936
#	87238
#	125799
#	140729
#	166083
#	189788
#	207051
#	236600
#	260156
#	288212
#
# Disc length: 4288 seconds
#
# Revision: 0
# Processed by: cddbd v1.4PL0 Copyright (c) Steve Scherf et al.
# Submitted via: CDex 1.50beta10
#
DISCID=a310be0c
DTITLE=Various Artist - New Age And Sounds
DYEAR=1900
DGENRE=New Age
TTITLE0=Armonia Nell'Universo
TTITLE1=Where The Earth Meets The Sky
TTITLE2=Oasis
TTITLE3=Between Two Worlds
TTITLE4=Monaghan Jig
TTITLE5=Musik Liebe Und Daisy
TTITLE6=Dead Cowboys
TTITLE7=Vue Sur Mer
TTITLE8=Das Awakening
TTITLE9=Soli Nella Notte
TTITLE10=Back Home
TTITLE11=Entre Dos Aguas
EXTD=
EXTT0=
EXTT1=
EXTT2=
EXTT3=
EXTT4=
EXTT5=
EXTT6=
EXTT7=
EXTT8=
EXTT9=
EXTT10=
EXTT11=
PLAYORDER=
